<svg xmlns="http://www.w3.org/2000/svg" viewBox="0 0 100 100" fill="none" role="img" aria-label="Kartavya Yoga Logo">
  <!-- Rough outer circle -->
  <path d="M50 4 L58 6 L65 4 L73 9 L80 14 L86 21 L91 29 L94 38 L95 48 L93 58 L88 67 L81 75 L72 81 L62 86 L51 88 L41 87 L31 83 L22 76 L15 67 L10 57 L7 46 L8 36 L12 26 L18 18 L26 11 L34 7 L43 5 Z" stroke="currentColor" stroke-width="2.2" stroke-linejoin="round"/>
  <!-- Central tall petal -->
  <path d="M50 70 L45 53 L50 33 L55 53 Z" stroke="currentColor" stroke-width="1.9" stroke-linejoin="round"/>
  <!-- Left inner petal -->
  <path d="M50 70 L34 58 L28 43 L44 55 Z" stroke="currentColor" stroke-width="1.7" stroke-linejoin="round"/>
  <!-- Right inner petal -->
  <path d="M50 70 L66 58 L72 43 L56 55 Z" stroke="currentColor" stroke-width="1.7" stroke-linejoin="round"/>
  <!-- Left outer petal -->
  <path d="M50 70 L22 63 L20 48 L34 58 Z" stroke="currentColor" stroke-width="1.4" stroke-linejoin="round"/>
  <!-- Right outer petal -->
  <path d="M50 70 L78 63 L80 48 L66 58 Z" stroke="currentColor" stroke-width="1.4" stroke-linejoin="round"/>
  <!-- Leftmost petal -->
  <path d="M50 70 L16 70 L18 56 L22 63 Z" stroke="currentColor" stroke-width="1.2" stroke-linejoin="round"/>
  <!-- Rightmost petal -->
  <path d="M50 70 L84 70 L82 56 L78 63 Z" stroke="currentColor" stroke-width="1.2" stroke-linejoin="round"/>
  <!-- Stem -->
  <path d="M50 70 L50 84" stroke="currentColor" stroke-width="2.2" stroke-linecap="square"/>
  <!-- Left leaf -->
  <path d="M50 78 L34 73 L38 82" stroke="currentColor" stroke-width="1.6" stroke-linejoin="round" stroke-linecap="square"/>
  <!-- Right leaf -->
  <path d="M50 78 L66 73 L62 82" stroke="currentColor" stroke-width="1.6" stroke-linejoin="round" stroke-linecap="square"/>
  <!-- Center detail dot -->
  <circle cx="50" cy="70" r="2" fill="currentColor"/>
</svg>
